<?xml version="1.0" encoding="utf-8"?>
<!-- Generator: Adobe Illustrator 25.0.0, SVG Export Plug-In . SVG Version: 6.00 Build 0)  -->
<svg version="1.1" id="Layer_1" xmlns="http://www.w3.org/2000/svg" xmlns:xlink="http://www.w3.org/1999/xlink" x="0px" y="0px"
	 viewBox="0 0 201 90" style="enable-background:new 0 0 201 90;" xml:space="preserve">
<style type="text/css">
	.st0{fill:#73BE44;}
	.st1{fill:#FFFFFF;}
</style>
<g>
	<path class="st0" d="M86.1,19.1c-6.1,0-11.2,5-11.2,11.2c0,6.1,5,11.2,11.2,11.2c6.1,0,11.2-5,11.2-11.2
		C97.3,24.1,92.2,19.1,86.1,19.1z M86.1,36.5c-3.4,0-6.2-2.8-6.2-6.2c0-3.4,2.7-6.2,6.2-6.2c3.4,0,6.2,2.7,6.2,6.2
		C92.3,33.7,89.5,36.5,86.1,36.5z"/>
	<path class="st0" d="M76,47.1L76,47.1c0-1.4,1.1-2.5,2.5-2.5h14.9c1.4,0,2.5,1.1,2.5,2.5v0c0,1.4-1.1,2.5-2.5,2.5H78.5
		C77.1,49.6,76,48.5,76,47.1z"/>
	<path class="st0" d="M130.8,47.7V31.1L123,47.9c-0.5,1-1.5,1.7-2.7,1.7h-1c-1.1,0-2.2-0.6-2.7-1.7l-8.4-17.2v17
		c0,1-0.8,1.9-1.9,1.9h-1.3c-1,0-1.9-0.8-1.9-1.9V21.4c0-1,0.8-1.9,1.9-1.9h2.1c0.7,0,1.4,0.4,1.7,1.1l10.9,22.4l10.5-22.3
		c0.3-0.7,1-1.1,1.7-1.1h2c1,0,1.9,0.8,1.9,1.9v26.4c0,1-0.8,1.9-1.9,1.9h-1.3C131.7,49.6,130.8,48.8,130.8,47.7z"/>
	<path class="st0" d="M163.1,41c0,8.3-8.4,8.6-10.4,8.6H145c-1.3,0-2.3-1-2.3-2.3V21.9c0-1.3,1-2.3,2.3-2.3h7.7c0,0,10-0.2,10,8.5
		c0,4-2.5,6-5,6.6C163.3,35.8,163.1,41,163.1,41z M152.7,32.1c0,0,5,0,5-3.7c0-4-5-3.8-5-3.8h-5v7.6H152.7z M158.1,40.8
		c0-4-5.4-3.7-5.4-3.7h-5v7.5h5C154.8,44.6,158.1,44.1,158.1,40.8z"/>
	<path class="st0" d="M178.8,19.1c-6.1,0-11.2,5-11.2,11.2c0,6.1,5,11.2,11.2,11.2c6.1,0,11.2-5,11.2-11.2
		C190,24.1,184.9,19.1,178.8,19.1z M178.8,36.5c-3.4,0-6.2-2.8-6.2-6.2c0-3.4,2.8-6.2,6.2-6.2c3.4,0,6.2,2.7,6.2,6.2
		C185,33.7,182.2,36.5,178.8,36.5z"/>
	<path class="st0" d="M168.7,47.1L168.7,47.1c0-1.4,1.1-2.5,2.5-2.5h14.9c1.4,0,2.5,1.1,2.5,2.5v0c0,1.4-1.1,2.5-2.5,2.5h-14.9
		C169.9,49.6,168.7,48.5,168.7,47.1z"/>
	<g>
		<path class="st1" d="M85.9,66.3c0-2.5-2-4.6-4.6-4.6c-2.5,0-4.6,2.1-4.6,4.6v8.1v0.1c0,0.1-0.1,0.2-0.2,0.3
			c-0.1,0.2-0.3,0.3-0.5,0.3h-0.2c-0.2-0.1-0.4-0.2-0.5-0.4c0,0,0-0.1,0-0.1c0,0,0-0.1,0-0.1v-0.2v-8.1V66v-5.1
			c0-0.4,0.3-0.7,0.7-0.7c0.4,0,0.7,0.3,0.7,0.7v1.4c1.1-1.3,2.8-2.2,4.6-2.2c3.3,0,6,2.7,6,6v8.1c0,0.4-0.3,0.7-0.7,0.7
			c-0.4,0-0.7-0.3-0.7-0.7V66.3z"/>
		<path class="st1" d="M111.8,60.9v13.4c0,0.4-0.3,0.7-0.7,0.7c-0.4,0-0.7-0.3-0.7-0.7v-2.2c-1.3,1.8-3.3,2.9-5.6,2.9
			c-3.9,0-7-3.4-7-7.4s3.1-7.4,7-7.4c2.3,0,4.3,1.2,5.6,2.9v-2.2c0-0.4,0.3-0.7,0.7-0.7C111.5,60.2,111.8,60.5,111.8,60.9z
			 M110.4,67.6c0-3.3-2.5-6-5.6-6c-3,0-5.6,2.7-5.6,6c0,3.3,2.5,6,5.6,6C107.9,73.6,110.4,71,110.4,67.6z"/>
		<path class="st1" d="M128.8,60.9c0,0.4-0.4,0.7-0.7,0.7h-1.9v10.8c0,0.7,0.7,1.1,1.1,1.1c0.4,0,0.8,0.4,0.8,0.8
			c0,0.4-0.4,0.7-0.8,0.7c-1.5,0-2.6-1.1-2.6-2.6V61.6h-1.9c-0.7,0-0.7-0.4-0.7-0.7c0-0.4,0-0.7,0.7-0.7h1.9v-5.5
			c0-0.4,0.4-0.7,0.7-0.7c0.4,0,0.8,0.4,0.8,0.7v5.5h1.9C128.4,60.2,128.8,60.6,128.8,60.9z"/>
		<path class="st1" d="M141.2,56.1c0-0.4,0.3-0.7,0.7-0.7c0.4,0,0.8,0.3,0.8,0.7v0.7c0,0.4-0.3,0.8-0.8,0.8c-0.4,0-0.7-0.4-0.7-0.8
			V56.1z M141.2,60.9c0-0.4,0.3-0.7,0.7-0.7c0.4,0,0.8,0.3,0.8,0.7v13.4c0,0.4-0.3,0.7-0.8,0.7c-0.4,0-0.7-0.3-0.7-0.7V60.9z"/>
		<path class="st1" d="M161.5,60.2c3.9,0,7,3.4,7,7.4c0,4-3.1,7.4-7,7.4c-3.9,0-7-3.4-7-7.4C154.5,63.6,157.7,60.2,161.5,60.2z
			 M161.5,73.6c3,0,5.6-2.7,5.6-6c0-3.3-2.5-6-5.6-6c-3,0-5.6,2.7-5.6,6C156,70.9,158.5,73.6,161.5,73.6z"/>
		<path class="st1" d="M190.3,66.3c0-2.5-2-4.6-4.6-4.6c-2.5,0-4.6,2.1-4.6,4.6v8.1v0.1c0,0.1-0.1,0.2-0.2,0.3
			c-0.1,0.2-0.3,0.3-0.5,0.3h-0.2c-0.2-0.1-0.4-0.2-0.5-0.4c0,0,0-0.1,0-0.1c0,0,0-0.1,0-0.1v-0.2v-8.1V66v-5.1
			c0-0.4,0.3-0.7,0.7-0.7c0.4,0,0.7,0.3,0.7,0.7v1.4c1.1-1.3,2.8-2.2,4.6-2.2c3.3,0,6,2.7,6,6v8.1c0,0.4-0.3,0.7-0.7,0.7
			c-0.4,0-0.7-0.3-0.7-0.7V66.3z"/>
	</g>
	<g>
		<path class="st0" d="M35.5,51.3h-7.8v30.2c0,2-1.6,3.6-3.6,3.6h-6.3c-2,0-3.6-1.6-3.6-3.6V37.8H27L14.7,18.4
			c-0.4-0.6-0.6-1.3-0.6-1.9V7.6c0-2,1.6-3.6,3.6-3.6h23.4c0,0,27.1,0,27.1,23.6c0,14.4-10,20.1-17.8,22.3L69,79.6
			c1.5,2.4-0.2,5.5-3.1,5.5h-7.4c-1.2,0-2.4-0.6-3.1-1.7L35.5,51.3z M54.7,27.6c0-10.1-13.6-10.1-13.6-10.1H30.3l12.6,20.2
			C46.5,37.4,54.7,35.6,54.7,27.6z"/>
	</g>
</g>
</svg>
