<?xml version="1.0" encoding="utf-8"?>
<!-- Generator: Adobe Illustrator 25.0.0, SVG Export Plug-In . SVG Version: 6.00 Build 0)  -->
<svg version="1.1" id="Layer_1" xmlns="http://www.w3.org/2000/svg" xmlns:xlink="http://www.w3.org/1999/xlink" x="0px" y="0px"
	 viewBox="0 0 554.6 231.5" style="enable-background:new 0 0 554.6 231.5;" xml:space="preserve">
<style type="text/css">
	.st0{fill:#71BF44;}
	.st1{fill:#FFFFFF;stroke:#71BF44;stroke-miterlimit:10;}
</style>
<g>
	<path class="st0" d="M199,75.6c0-17,13.9-30.8,30.8-30.8c17,0,30.8,13.9,30.8,30.8c0,17-13.9,30.8-30.8,30.8
		C212.9,106.4,199,92.5,199,75.6z M202.2,128.9v-13.8H257v13.8H202.2z M212.8,75.6c0,9.5,7.6,17,17,17s17-7.6,17-17s-7.6-17-17-17
		S212.8,66.1,212.8,75.6z"/>
	<path class="st0" d="M353.3,128.9v-51l-23.9,51h-13l-25.4-52.1v52.1h-13.9V45.8h14.1l31.5,64.6L353,45.8h14.1v83.1H353.3z"/>
	<path class="st0" d="M442.3,105.1c0,22.8-23.3,23.9-28.8,23.9h-27.6v-83h27.6c0,0,27.6-0.6,27.6,23.4c0,10.9-6.7,16.5-13.9,18.2
		C442.9,90.8,442.3,105.1,442.3,105.1z M413.5,80.5c0,0,13.8,0,13.8-10.3c0-11.2-13.8-10.6-13.8-10.6h-13.9v20.8H413.5z
		 M428.5,104.7c0-11.2-15-10.3-15-10.3h-13.9v20.7h13.9C419.4,115.2,428.5,113.8,428.5,104.7z"/>
	<path class="st0" d="M454.8,75.6c0-17,13.9-30.8,30.8-30.8c16.9,0,30.8,13.9,30.8,30.8c0,17-13.9,30.8-30.8,30.8
		C468.7,106.4,454.8,92.5,454.8,75.6z M457.9,128.9v-13.8h54.8v13.8H457.9z M468.5,75.6c0,9.5,7.6,17,17,17c9.4,0,17-7.6,17-17
		s-7.6-17-17-17C476.2,58.6,468.5,66.1,468.5,75.6z"/>
</g>
<g>
	<path class="st1" d="M229.4,174.8c0-6.9-5.6-12.6-12.6-12.6c-6.9,0-12.6,5.7-12.7,12.6v22.3v0.3c-0.1,0.3-0.2,0.7-0.4,0.9
		c-0.3,0.5-0.9,0.7-1.5,0.7h-0.5c-0.6-0.2-1.1-0.6-1.3-1.1c-0.1-0.1-0.1-0.1-0.1-0.3c0-0.1-0.1-0.1-0.1-0.1v-0.5v-22.3v-0.7v-14
		c0-1.1,0.9-2,2-2c1.1,0,1.9,0.9,1.9,2v3.9c3-3.6,7.6-5.9,12.7-5.9c9.2,0,16.6,7.6,16.6,16.6v22.3c0,1.2-0.9,2-2,2s-2-0.9-2-2
		L229.4,174.8L229.4,174.8z"/>
	<path class="st1" d="M300.9,160.1v37c0,1.1-0.9,2-2,2c-1.1,0-2-0.9-2-2V191c-3.5,4.9-9.2,8.2-15.4,8.2c-10.8,0-19.4-9.3-19.4-20.5
		s8.6-20.5,19.4-20.5c6.3,0,11.9,3.2,15.4,8v-6c0-1.2,0.9-2,2-2C299.9,158.1,300.9,158.9,300.9,160.1z M296.9,178.6
		c0-9.2-6.9-16.6-15.4-16.6c-8.4,0-15.4,7.4-15.4,16.6s7,16.5,15.4,16.5C289.9,195.1,296.9,187.8,296.9,178.6z"/>
	<path class="st1" d="M347.7,160.1c0,1-1,2-2,2h-5.3v29.9c0,2,2,3,3,3c1,0,2.1,1.1,2.1,2.1c0,1-1.1,2-2.1,2c-4.1,0-7.2-3-7.2-7.1
		v-29.9h-5.1c-2,0-2-1-2-2c0-1,0-2,2-2h5.1v-15.2c0-1,1-2,2-2c1.1,0,2.2,1,2.2,2v15.2h5.3C346.7,158.1,347.7,159.1,347.7,160.1z"/>
	<path class="st1" d="M382,146.7c0-1.1,0.9-2,2-2c1.2,0,2.1,0.9,2.1,2v1.9c0,1.2-0.9,2.2-2.1,2.2c-1.1,0-2-1-2-2.2V146.7z
		 M382,160.1c0-1.2,0.9-2,2-2c1.2,0,2.1,0.9,2.1,2v37c0,1.1-0.9,2-2.1,2c-1.1,0-2-0.9-2-2V160.1z"/>
	<path class="st1" d="M438.1,158.1c10.8,0,19.4,9.4,19.4,20.5c0,11.2-8.6,20.5-19.4,20.5c-10.7,0-19.4-9.4-19.4-20.5
		C418.6,167.5,427.3,158.1,438.1,158.1z M438.1,195.1c8.4,0,15.4-7.4,15.4-16.5c0-9.2-7-16.6-15.4-16.6c-8.4,0-15.4,7.5-15.4,16.6
		C422.6,187.7,429.6,195.1,438.1,195.1z"/>
	<path class="st1" d="M517.3,174.8c0-6.9-5.6-12.6-12.6-12.6c-6.9,0-12.6,5.7-12.7,12.6v22.3v0.3c-0.1,0.3-0.2,0.7-0.4,0.9
		c-0.3,0.5-0.9,0.7-1.5,0.7h-0.5c-0.6-0.2-1.1-0.6-1.3-1.1c-0.1-0.1-0.1-0.1-0.1-0.3c0-0.1-0.1-0.1-0.1-0.1v-0.5v-22.3v-0.7v-14
		c0-1.1,0.9-2,2-2c1.1,0,1.9,0.9,1.9,2v3.9c3-3.6,7.6-5.9,12.7-5.9c9.2,0,16.6,7.6,16.6,16.6v22.3c0,1.2-0.9,2-2,2c-1.1,0-2-0.9-2-2
		L517.3,174.8L517.3,174.8z"/>
</g>
<g>
	<path class="st0" d="M90.3,133.5H68.9v93.4H31.4V96.4h35.5L31.4,40.5V3.1H106c0,0,74.8,0,74.8,65.2c0,39.6-27.5,55.3-49.2,61.4
		l60.7,97.2h-43.8L90.3,133.5z M143.4,68.3c0-27.8-37.4-27.8-37.4-27.8H75.9l34.8,55.6C120.7,95.2,143.4,90.4,143.4,68.3z"/>
</g>
</svg>
